:FULLY-SPECIFIED
:FORCE-ALL-JOINTS-BE-3DOF
:DEGREES
1
root 0.0917792 17.1113 -36.2281 4.68854 2.37172 2.1196
lfemur -7.00586 -1.73986 -27.8547
ltibia 41.1896 0 0
lfoot -18.4606 0.563554 0
ltoes -11.2184 0 0
rfemur -36.1767 -4.01455 16.7326
rtibia 108.236 0 0
rfoot 12.8687 -5.27186 0
rtoes 8.52629 0 0
lowerback 19.257 -1.22373 -5.06989
upperback 1.70725 -2.88959 -2.17631
thorax -8.80689 -1.22956 1.27549
lowerneck -3.02729 -0.130267 -1.32286
upperneck -12.924 0.233441 4.10486
head -3.67612 0.0262048 1.58301
lclavicle -9.54166e-15 -7.15625e-15 0
lhumerus -10.0203 -20.6355 82.8192
lradius 113.865 0 0
lwrist 27.5011 0 0
lhand -37.1915 8.38258 0
lfingers 7.12502 0 0
lthumb -10.2594 38.1124 0
rclavicle -9.54166e-15 -7.15625e-15 0
rhumerus -54.6221 8.39899 -88.3047
rradius 81.0784 0 0
rwrist -0.792659 0 0
rhand -48.8742 40.2847 0
rfingers 7.12502 0 0
rthumb -21.5082 11.4588 0
2
root 0.102778 17.1157 -35.6909 4.68484 2.21091 2.02081
lfemur -7.2586 -1.51182 -27.5994
ltibia 42.159 0 0
lfoot -18.0041 0.49488 0
ltoes -11.1865 0 0
rfemur -35.8956 -3.91048 16.9422
rtibia 107.342 0 0
rfoot 12.4736 -5.28661 0
rtoes 8.28941 0 0
lowerback 19.2467 -1.21804 -4.9473
upperback 1.71435 -2.85172 -2.1172
thorax -8.79537 -1.21479 1.25987
lowerneck -3.00261 -0.0886619 -1.29254
upperneck -12.9762 0.276967 3.99567
head -3.69062 0.050868 1.54131
lclavicle -9.61326e-15 -6.93679e-15 0
lhumerus -10.5259 -20.507 83.0013
lradius 113.734 0 0
lwrist 27.5891 0 0
lhand -37.2239 8.45926 0
lfingers 7.12502 0 0
lthumb -10.2907 38.1873 0
rclavicle -9.61326e-15 -6.93679e-15 0
rhumerus -54.3026 8.45789 -88.3048
rradius 81.3511 0 0
rwrist -0.820489 0 0
rhand -48.8185 40.2562 0
rfingers 7.12502 0 0
rthumb -21.4546 11.4249 0
3
root 0.113777 17.1201 -35.1536 4.68278 2.0216 1.90476
lfemur -7.54991 -1.24431 -27.3011
ltibia 43.2927 0 0
lfoot -17.4722 0.415248 0
ltoes -11.1468 0 0
rfemur -35.5789 -3.78487 17.1878
rtibia 106.299 0 0
rfoot 12.0064 -5.30318 0
rtoes 8.00402 0 0
lowerback 19.2352 -1.21161 -4.8039
upperback 1.72199 -2.80779 -2.04784
thorax -8.78297 -1.19765 1.24193
lowerneck -2.97191 -0.0395822 -1.2567
upperneck -13.0391 0.328464 3.86778
head -3.70858 0.0799569 1.49245
lclavicle -9.70361e-15 -6.70518e-15 0
lhumerus -11.1093 -20.3597 83.2127
lradius 113.585 0 0
lwrist 27.6911 0 0
lhand -37.2624 8.54926 0
lfingers 7.12502 0 0
lthumb -10.3277 38.2753 0
rclavicle -9.70361e-15 -6.70518e-15 0
rhumerus -53.9326 8.5278 -88.3066
rradius 81.6706 0 0
rwrist -0.854001 0 0
rhand -48.7555 40.2239 0
rfingers 7.12502 0 0
rthumb -21.3941 11.3865 0
4
root 0.124776 17.1244 -34.6164 4.68221 1.80547 1.77248
lfemur -7.87764 -0.93966 -26.9623
ltibia 44.5809 0 0
lfoot -16.8693 0.325282 0
ltoes -11.0998 0 0
rfemur -35.2284 -3.63906 17.4673
rtibia 105.115 0 0
rfoot 11.4713 -5.3215 0
rtoes 7.67314 0 0
lowerback 19.2228 -1.20447 -4.64089
upperback 1.73013 -2.75813 -1.96883
thorax -8.76972 -1.17827 1.22181
lowerneck -2.93559 0.0165272 -1.21568
upperneck -13.1121 0.387455 3.72228
head -3.72978 0.113208 1.43684
lclavicle -9.81146e-15 -6.46154e-15 0
lhumerus -11.7661 -20.1944 83.4519
lradius 113.418 0 0
lwrist 27.8062 0 0
lhand -37.3065 8.65181 0
lfingers 7.12502 0 0
lthumb -10.3703 38.3755 0
rclavicle -9.81146e-15 -6.46154e-15 0
rhumerus -53.5149 8.60806 -88.3099
rradius 82.0341 0 0
rwrist -0.892843 0 0
rhand -48.6857 40.1882 0
rfingers 7.12502 0 0
rthumb -21.327 11.3439 0
5
root 0.135775 17.1288 -34.0791 4.68297 1.56421 1.62497
lfemur -8.23964 -0.600175 -26.5855
ltibia 46.0143 0 0
lfoot -16.1998 0.225604 0
ltoes -11.046 0 0
rfemur -34.8458 -3.47441 17.7785
rtibia 103.799 0 0
rfoot 10.8728 -5.34147 0
rtoes 7.29977 0 0
lowerback 19.2093 -1.19665 -4.4595
upperback 1.73877 -2.70309 -1.88078
thorax -8.75565 -1.15678 1.19963
lowerneck -2.89403 0.0792214 -1.16979
upperneck -13.1946 0.453461 3.56027
head -3.75401 0.150359 1.37492
lclavicle -9.93557e-15 -6.20602e-15 0
lhumerus -12.4921 -20.0123 83.717
lradius 113.235 0 0
lwrist 27.9336 0 0
lhand -37.3558 8.76613 0
lfingers 7.12502 0 0
lthumb -10.4179 38.4872 0
rclavicle -9.93557e-15 -6.20602e-15 0
rhumerus -53.0525 8.69801 -88.3145
rradius 82.439 0 0
rwrist -0.936661 0 0
rhand -48.6094 40.1491 0
rfingers 7.12502 0 0
rthumb -21.2536 11.2974 0
6
root 0.146774 17.1332 -33.5419 4.68493 1.29952 1.46326
lfemur -8.63377 -0.228175 -26.1733
ltibia 47.5831 0 0
lfoot -15.4679 0.116836 0
ltoes -10.9859 0 0
rfemur -34.433 -3.29224 18.1195
rtibia 102.359 0 0
rfoot 10.215 -5.36299 0
rtoes 6.88694 0 0
lowerback 19.1949 -1.18821 -4.26092
upperback 1.74789 -2.64301 -1.78429
thorax -8.74078 -1.13333 1.17552
lowerneck -2.84764 0.148056 -1.11938
upperneck -13.2858 0.526006 3.38283
head -3.78102 0.191145 1.3071
lclavicle -1.00747e-14 -5.93875e-15 0
lhumerus -13.2829 -19.8144 84.0066
lradius 113.036 0 0
lwrist 28.0726 0 0
lhand -37.4102 8.89142 0
lfingers 7.12502 0 0
lthumb -10.4703 38.6096 0
rclavicle -1.00747e-14 -5.93875e-15 0
rhumerus -52.5481 8.79697 -88.3204
rradius 82.8825 0 0
rwrist -0.985104 0 0
rhand -48.5269 40.1068 0
rfingers 7.12502 0 0
rthumb -21.1743 11.2472 0
7
root 0.157773 17.1376 -33.0046 4.68794 1.01308 1.28835
lfemur -9.05786 0.174024 -25.728
ltibia 49.278 0 0
lfoot -14.678 -0.000399279 0
ltoes -10.92 0 0
rfemur -33.9918 -3.09391 18.488
rtibia 100.804 0 0
rfoot 9.50237 -5.38598 0
rtoes 6.43766 0 0
lowerback 19.1796 -1.17918 -4.04638
upperback 1.75748 -2.57825 -1.67997
thorax -8.72514 -1.10804 1.1496
lowerneck -2.7968 0.222585 -1.06478
upperneck -13.3852 0.604611 3.19106
head -3.81061 0.235304 1.23379
lclavicle -1.02276e-14 -5.65988e-15 0
lhumerus -14.1341 -19.6018 84.3187
lradius 112.823 0 0
lwrist 28.2224 0 0
lhand -37.469 9.0269 0
lfingers 7.12502 0 0
lthumb -10.5271 38.742 0
rclavicle -1.02276e-14 -5.65988e-15 0
rhumerus -52.0047 8.90429 -88.3274
rradius 83.3619 0 0
rwrist -1.03782 0 0
rhand -48.4387 40.0616 0
rfingers 7.12502 0 0
rthumb -21.0895 11.1934 0
8
root 0.168772 17.1419 -32.4674 4.69185 0.706578 1.10127
lfemur -9.50978 0.604104 -25.2523
ltibia 51.0892 0 0
lfoot -13.8345 -0.125479 0
ltoes -10.8488 0 0
rfemur -33.524 -2.88076 18.882
rtibia 99.1427 0 0
rfoot 8.73918 -5.41034 0
rtoes 5.95494 0 0
lowerback 19.1635 -1.16959 -3.81709
upperback 1.76751 -2.50915 -1.5684
thorax -8.70876 -1.08106 1.122
lowerneck -2.74191 0.302365 -1.0063
upperneck -13.4919 0.688799 2.98606
head -3.84254 0.282572 1.15542
lclavicle -1.0393e-14 -5.36954e-15 0
lhumerus -15.0413 -19.3754 84.6519
lradius 112.596 0 0
lwrist 28.3821 0 0
lhand -37.5321 9.1718 0
lfingers 7.12502 0 0
lthumb -10.5879 38.8835 0
rclavicle -1.0393e-14 -5.36954e-15 0
rhumerus -51.425 9.0193 -88.3354
rradius 83.8744 0 0
rwrist -1.09445 0 0
rhand -48.3451 40.0137 0
rfingers 7.12502 0 0
rthumb -20.9995 11.1364 0
9
root 0.179771 17.1463 -31.9301 4.69651 0.381699 0.90304
lfemur -9.98738 1.05975 -24.7485
ltibia 53.0073 0 0
lfoot -12.9416 -0.257782 0
ltoes -10.7729 0 0
rfemur -33.0314 -2.65413 19.2993
rtibia 97.3839 0 0
rfoot 7.92975 -5.43598 0
rtoes 5.44179 0 0
lowerback 19.1466 -1.15949 -3.57426
upperback 1.77799 -2.43605 -1.4502
thorax -8.69166 -1.05251 1.09285
lowerneck -2.68335 0.38695 -0.944287
upperneck -13.6054 0.778092 2.76891
head -3.87658 0.332686 1.0724
lclavicle -1.05698e-14 -5.06788e-15 0
lhumerus -16.0002 -19.1363 85.0044
lradius 112.357 0 0
lwrist 28.5511 0 0
lhand -37.599 9.32532 0
lfingers 7.12502 0 0
lthumb -10.6524 39.0335 0
rclavicle -1.05698e-14 -5.06788e-15 0
rhumerus -50.812 9.14134 -88.3442
rradius 84.4172 0 0
rwrist -1.15465 0 0
rhand -48.2465 39.9632 0
rfingers 7.12502 0 0
rthumb -20.9047 11.0762 0
